<svg xmlns="http://www.w3.org/2000/svg" viewBox="0 0 33 39" width="33" height="39">
	<defs>
		<linearGradient id="grd1" gradientUnits="userSpaceOnUse"  x1="1.844" y1="1.094" x2="29.114" y2="38.79">
			<stop offset="0" stop-color="#ff4a7d"  />
			<stop offset="1" stop-color="#d9124e"  />
		</linearGradient>
	</defs>
	<style>
		tspan { white-space:pre }
		.shp0 { fill: url(#grd1) } 
	</style>
	<path id="shape" class="shp0" d="M21.83,-0.37c0.63,0.08 1.11,0.62 1.11,1.29v4.45h8.17l0.16,0.01c0.63,0.08 1.11,0.62 1.11,1.29c0,0.72 -0.57,1.3 -1.27,1.3h-0.62v23.58l-0.01,0.33c-0.17,3.73 -3.21,6.7 -6.93,6.7h-15.11l-0.33,-0.01c-3.68,-0.17 -6.61,-3.25 -6.61,-7.03v-23.58h-0.62l-0.16,-0.01c-0.63,-0.08 -1.11,-0.62 -1.11,-1.29c0,-0.72 0.57,-1.3 1.27,-1.3h8.17v-4.45l0.01,-0.16c0.08,-0.64 0.61,-1.13 1.26,-1.13h11.33zM4.05,7.95v23.58l0.01,0.26c0.13,2.33 2.05,4.18 4.39,4.18h15.11l0.26,-0.01c2.31,-0.14 4.14,-2.07 4.14,-4.44v-23.58zM13.49,14.31v15.31l-0.01,0.16c-0.08,0.64 -0.61,1.13 -1.26,1.13c-0.7,0 -1.27,-0.58 -1.27,-1.3v-15.31l0.01,-0.16c0.08,-0.64 0.61,-1.13 1.26,-1.13c0.7,0 1.27,0.58 1.27,1.3zM21.05,14.31v15.31l-0.01,0.16c-0.08,0.64 -0.61,1.13 -1.26,1.13c-0.7,0 -1.27,-0.58 -1.27,-1.3v-15.31l0.01,-0.16c0.08,-0.64 0.61,-1.13 1.26,-1.13c0.7,0 1.27,0.58 1.27,1.3zM11.6,2.21v3.15h8.79v-3.15z" />
</svg>